<?xml version="1.0" standalone="no"?><!DOCTYPE svg PUBLIC "-//W3C//DTD SVG 1.1//EN" "http://www.w3.org/Graphics/SVG/1.1/DTD/svg11.dtd"><svg t="1641200975942" class="icon" viewBox="0 0 1024 1024" version="1.1" xmlns="http://www.w3.org/2000/svg" p-id="2620" width="48" height="48" xmlns:xlink="http://www.w3.org/1999/xlink"><defs><style type="text/css"></style></defs><path d="M816.8 215.1l-20.2 17.7c72.1 72.1 117 171.5 117 281.6 0 63.7-15.2 123.7-41.7 177.1l23 13.3c12.2 7 16.4 22.6 9.3 34.8-7 12.2-22.6 16.4-34.8 9.3l-23.1-13.3c-67.2 100.5-178.7 168.9-306.7 177v26.8c0 14.1-11.4 25.5-25.5 25.5s-25.5-11.4-25.5-25.5v-26.8c-118.7-7.5-223.2-66.8-291.4-155.5l-17.5 15.3c-11.6 8-27.5 5.1-35.5-6.5s-5.1-27.5 6.5-35.5l18.2-16c-34.3-58.8-54.3-127-54.3-200.1 0-63.7 15.2-123.8 41.7-177.1l-23-13.3c-12.2-7-16.4-22.6-9.3-34.8 7-12.2 22.6-16.4 34.8-9.3l23.1 13.3c67.2-100.5 178.7-168.8 306.7-177V89.4c0-14.1 11.4-25.5 25.5-25.5s25.5 11.4 25.5 25.5v26.8c81.3 5.1 155.9 34.8 216.8 81.4l30.3-26.6c12-8.4 28.5-5.4 36.9 6.8 8.3 12.2 5.3 28.9-6.8 37.3zM344.1 318.9c-14.1 0-25.5 11.4-25.5 25.5s11.4 25.5 25.5 25.5 25.5-11.4 25.5-25.5-11.4-25.5-25.5-25.5z m144.5 238c-46.9 0-85 38.1-85 85s38.1 85 85 85 85-38.1 85-85-38.1-85-85-85z m195.5-221c-32.9 0-59.5 26.6-59.5 59.5s26.6 59.5 59.5 59.5 59.5-26.6 59.5-59.5c0-32.8-26.7-59.5-59.5-59.5z" fill="#FF5E39" p-id="2621"></path><path d="M115.7 531.4c2.9 66.6 22.1 128.9 53.7 183.1l-18.2 16c-11.6 8-14.5 23.9-6.5 35.5 8 11.6 23.9 14.5 35.5 6.5l17.5-15.3c68.2 88.7 172.7 148 291.4 155.5v26.8c0 14.1 11.4 25.5 25.5 25.5s25.5-11.4 25.5-25.5v-26.8c128-8.1 239.5-76.5 306.7-177l23.1 13.3c12.2 7 27.8 2.9 34.8-9.3 7-12.2 2.9-27.8-9.3-34.8l-23-13.3c24.2-48.6 38.7-102.7 41.2-160.1H115.7z m373.4 195.5c-46.9 0-85-38.1-85-85s38.1-85 85-85 85 38.1 85 85c0 47-38.1 85-85 85z" fill="#FFFC9D" opacity=".15" p-id="2622"></path><path d="M684.1 454.9c-26.9 0-49.4-18-56.7-42.5H128.1c-8.7 32.6-13.5 66.7-13.5 102 0 73.1 20 141.3 54.3 200.1l-18.2 16c-11.6 8-14.5 23.9-6.5 35.5 8 11.6 23.9 14.5 35.5 6.5l17.5-15.3c68.2 88.7 172.7 148 291.4 155.5v26.8c0 14.1 11.4 25.5 25.5 25.5s25.5-11.4 25.5-25.5v-26.8c128-8.1 239.5-76.5 306.7-177l23.1 13.3c12.2 7 27.8 2.9 34.8-9.3 7-12.2 2.9-27.8-9.3-34.8l-23-13.3c26.5-53.4 41.7-113.4 41.7-177.1 0-35.3-4.7-69.5-13.3-102H740.8c-7.3 24.4-29.8 42.4-56.7 42.4z m-195.5 272c-46.9 0-85-38.1-85-85s38.1-85 85-85 85 38.1 85 85c0 47-38.1 85-85 85z" fill="#FFFC9D" opacity=".1" p-id="2623"></path><path d="M574.7 633.4c0.3 2.8 0.9 5.6 0.9 8.5 0 46.9-38.1 85-85 85s-85-38.1-85-85c0-2.9 0.6-5.7 0.9-8.5H135c9 28.5 20.9 55.7 35.7 81.1l-18.2 16c-11.6 8-14.5 23.9-6.5 35.5 8 11.6 23.9 14.5 35.5 6.5l17.5-15.3c68.2 88.7 172.7 148 291.4 155.5v26.8c0 14.1 11.4 25.5 25.5 25.5s25.5-11.4 25.5-25.5v-26.8c128-8.1 239.5-76.5 306.7-177l23.1 13.3c12.2 7 27.8 2.9 34.8-9.3 7-12.2 2.9-27.8-9.3-34.8l-23-13.3c9.2-18.6 17-38 23.3-58.1H574.7z" fill="#FFFC9D" opacity=".2" p-id="2624"></path></svg>